<?xml version="1.0" standalone="no"?><!DOCTYPE svg PUBLIC "-//W3C//DTD SVG 1.1//EN" "http://www.w3.org/Graphics/SVG/1.1/DTD/svg11.dtd"><svg width="128" height="128" viewBox="0 0 128 128" version="1.1" xmlns="http://www.w3.org/2000/svg" xmlns:xlink="http://www.w3.org/1999/xlink"><defs><style type="text/css"><![CDATA[
@font-face { font-family: ifont; src: url("//at.alicdn.com/t/font_1442373896_4754455.eot?#iefix") format("embedded-opentype"), url("//at.alicdn.com/t/font_1442373896_4754455.woff") format("woff"), url("//at.alicdn.com/t/font_1442373896_4754455.ttf") format("truetype"), url("//at.alicdn.com/t/font_1442373896_4754455.svg#ifont") format("svg"); }

]]></style></defs><g class="transform-group"><g transform="scale(0.125, 0.125)"><path d="M620.709611 858.15833M525.924659 1024c-8.216573 0-16.305162-3.941907-21.270941-11.262592L197.415323 559.366879c-36.680215-58.00235-55.826622-123.862917-55.826622-191.182502 0-203.008224 172.266467-368.184377 384.0032-368.184377s384.0032 165.176153 384.0032 368.184377c0 67.191601-19.095213 132.975378-55.186702 190.209824l-212.453443 314.123935c-7.935008 11.723335-23.933008 14.794951-35.630746 6.885539-11.723335-7.935008-14.820547-23.881815-6.885539-35.630746L811.482565 530.314511c30.460192-48.352356 46.816548-104.665317 46.816548-162.130134C858.299113 193.460617 709.069766 51.321585 525.617498 51.321585S192.910286 193.460617 192.910286 368.15878c0 57.592801 16.407549 114.008149 47.430871 163.102812l306.80325 452.679415c7.960605 11.723335 4.888989 27.695738-6.834346 35.656343C535.907412 1022.540982 530.890439 1024 525.924659 1024zM525.617498 546.747657c-99.238795 0-179.9967-80.732308-179.9967-179.971104 0-99.238795 80.732308-179.9967 179.9967-179.9967s179.9967 80.732308 179.9967 179.9967C705.588601 466.015348 624.856293 546.747657 525.617498 546.747657zM525.617498 239.611649c-70.135233 0-127.164904 57.055268-127.164904 127.164904 0 70.109636 57.055268 127.190501 127.164904 127.190501s127.164904-57.055268 127.164904-127.190501C652.782402 296.64132 595.727134 239.611649 525.617498 239.611649z" fill="#EA8010"></path></g></g></svg>