<?xml version="1.0" standalone="no"?><!DOCTYPE svg PUBLIC "-//W3C//DTD SVG 1.1//EN" "http://www.w3.org/Graphics/SVG/1.1/DTD/svg11.dtd"><svg width="128" height="128" viewBox="0 0 128 128" version="1.1" xmlns="http://www.w3.org/2000/svg" xmlns:xlink="http://www.w3.org/1999/xlink"><defs><style type="text/css"><![CDATA[
@font-face { font-family: ifont; src: url("//at.alicdn.com/t/font_1442373896_4754455.eot?#iefix") format("embedded-opentype"), url("//at.alicdn.com/t/font_1442373896_4754455.woff") format("woff"), url("//at.alicdn.com/t/font_1442373896_4754455.ttf") format("truetype"), url("//at.alicdn.com/t/font_1442373896_4754455.svg#ifont") format("svg"); }

]]></style></defs><g class="transform-group"><g transform="scale(0.125, 0.125)"><path d="M854.230738 353.592799 854.230738 955.553852c0 37.782274-30.663874 68.446148-68.446148 68.446148S717.338443 993.336126 717.338443 955.553852L717.338443 353.592799c0-37.827904 30.663874-68.446148 68.446148-68.446148S854.230738 315.810525 854.230738 353.592799zM238.215409 540.496413c-37.827904 0-68.446148 30.618243-68.446148 68.446148l0 346.656923c0 37.782274 30.618243 68.446148 68.446148 68.446148s68.446148-30.663874 68.446148-68.446148L306.661557 608.94256C306.661557 571.114656 276.043314 540.496413 238.215409 540.496413zM512 0c-37.827904 0-68.446148 30.618243-68.446148 68.446148L443.553852 955.553852c0 37.782274 30.618243 68.446148 68.446148 68.446148 37.782274 0 68.446148-30.663874 68.446148-68.446148L580.446148 68.446148C580.446148 30.618243 549.782274 0 512 0z" fill="#00BB9C"></path></g></g></svg>