<?xml version="1.0" standalone="no"?><!DOCTYPE svg PUBLIC "-//W3C//DTD SVG 1.1//EN" "http://www.w3.org/Graphics/SVG/1.1/DTD/svg11.dtd"><svg width="128" height="128" viewBox="0 0 128 128" version="1.1" xmlns="http://www.w3.org/2000/svg" xmlns:xlink="http://www.w3.org/1999/xlink"><defs><style type="text/css"><![CDATA[
@font-face { font-family: ifont; src: url("//at.alicdn.com/t/font_1442373896_4754455.eot?#iefix") format("embedded-opentype"), url("//at.alicdn.com/t/font_1442373896_4754455.woff") format("woff"), url("//at.alicdn.com/t/font_1442373896_4754455.ttf") format("truetype"), url("//at.alicdn.com/t/font_1442373896_4754455.svg#ifont") format("svg"); }

]]></style></defs><g class="transform-group"><g transform="scale(0.125, 0.125)"><path d="M784.328704 610.521088c62.380032-45.303808 103.417856-121.972736 103.417856-209.09056 0-141.135872-108.347392-256.135168-241.313792-256.135168-24.354816 0-47.814656 3.893248-69.912576 11.053056-43.350016-68.663296-117.116928-113.999872-200.593408-113.999872-132.970496 0-239.673344 114.999296-239.673344 254.39232 0 87.12192 41.037824 163.786752 103.421952 209.09056C98.494464 565.071872 0 709.691392 0 878.70464l67.303424 0c0-167.272448 119.83872-306.663424 272.504832-325.828608 1.644544 0 42.682368-3.485696 77.156352 0l3.284992 0c14.333952 2.17088 28.336128 5.431296 41.965568 9.617408 13.922304 17.678336 30.058496 33.277952 47.96416 46.282752-141.176832 59.242496-239.669248 203.862016-239.669248 372.875264l67.303424 0c0-167.272448 119.834624-306.663424 272.504832-325.832704 1.640448 0 42.682368-3.4816 77.152256 0l3.282944 0c149.385216 22.654976 264.296448 158.560256 264.296448 324.089856L1024 979.908608C1022.359552 812.638208 923.860992 668.020736 784.328704 610.521088zM375.926784 488.404992c-100.13696 0-180.578304-85.379072-180.578304-191.664128 0-106.289152 80.441344-191.664128 180.578304-191.664128 59.82208 0 112.5888 30.492672 145.399808 77.688832-68.85376 44.93312-114.56512 125.698048-114.56512 216.92416 0 29.10208 4.601856 57.02656 13.02528 83.017728C405.751808 486.38976 391.07584 488.404992 375.926784 488.404992zM646.432768 591.351808c-100.13696 0-180.574208-85.379072-180.574208-191.664128 0-67.72736 32.688128-126.920704 82.292736-160.989184 0.047104 0.157696 0.100352 0.311296 0.147456 0.468992 2.172928-1.671168 4.376576-3.29728 6.6048-4.892672 26.804224-16.674816 58.054656-26.257408 91.531264-26.257408 100.139008 0 180.574208 85.379072 180.574208 191.670272C827.006976 505.972736 746.569728 591.351808 646.432768 591.351808z" fill="#438EB9"></path></g></g></svg>