<?xml version="1.0" standalone="no"?><!DOCTYPE svg PUBLIC "-//W3C//DTD SVG 1.1//EN" "http://www.w3.org/Graphics/SVG/1.1/DTD/svg11.dtd"><svg width="128" height="128" viewBox="0 0 128 128" version="1.1" xmlns="http://www.w3.org/2000/svg" xmlns:xlink="http://www.w3.org/1999/xlink"><defs><style type="text/css"><![CDATA[
@font-face { font-family: ifont; src: url("//at.alicdn.com/t/font_1442373896_4754455.eot?#iefix") format("embedded-opentype"), url("//at.alicdn.com/t/font_1442373896_4754455.woff") format("woff"), url("//at.alicdn.com/t/font_1442373896_4754455.ttf") format("truetype"), url("//at.alicdn.com/t/font_1442373896_4754455.svg#ifont") format("svg"); }

]]></style></defs><g class="transform-group"><g transform="scale(0.125, 0.125)"><path d="M915.638013 140.887774 111.303992 140.887774c-31.730679 0-57.452503 25.715685-57.452503 57.452503l0 631.975489c0 31.730679 25.721825 57.458643 57.452503 57.458643L915.638013 887.774409c31.730679 0 57.452503-25.726941 57.452503-57.458643L973.090517 198.341301C973.090517 166.604482 947.368692 140.887774 915.638013 140.887774zM312.382637 706.775078c-79.32465 0-143.626141 36.32123-143.626141-55.292304s64.301492-165.877935 143.626141-165.877935c-47.593971 0-86.178755-38.585807-86.178755-86.184895 0-47.587831 38.585807-86.173638 86.178755-86.173638 47.600111 0 86.178755 38.584784 86.178755 86.173638 0 47.600111-38.579667 86.184895-86.178755 86.184895 79.32465 0 143.637398 74.263377 143.637398 165.877935S391.70831 706.775078 312.382637 706.775078zM800.731984 715.416899 628.373451 715.416899c-31.725562 0-57.447387-25.726941-57.447387-57.452503 0-31.731702 25.721825-57.452503 57.447387-57.452503l172.358533 0c31.731702 0 57.458643 25.721825 57.458643 57.452503C858.190627 689.688935 832.463686 715.416899 800.731984 715.416899zM800.731984 485.60484 628.373451 485.60484c-31.725562 0-57.447387-25.721825-57.447387-57.452503s25.721825-57.458643 57.447387-57.458643l172.358533 0c31.731702 0 57.458643 25.726941 57.458643 57.458643S832.463686 485.60484 800.731984 485.60484z" fill="#00BB9C"></path></g></g></svg>